<svg xmlns="http://www.w3.org/2000/svg" width="1440" height="900"><path d="M903,595L1151,493L1060,208Z" fill="#bdbdf6" stroke="#bdbdf6" stroke-width="1.51"/><path d="M1060,208L749,233L903,595Z" fill="#c2c4f7" stroke="#c2c4f7" stroke-width="1.51"/><path d="M1060,208L872,97L749,233Z" fill="#c8ccf9" stroke="#c8ccf9" stroke-width="1.51"/><path d="M1151,493L1394,388L1060,208Z" fill="#bebdf9" stroke="#bebdf9" stroke-width="1.51"/><path d="M1060,208L1308,128L872,97Z" fill="#c8c9fb" stroke="#c8c9fb" stroke-width="1.51"/><path d="M1394,388L1308,128L1060,208Z" fill="#c3c0fc" stroke="#c3c0fc" stroke-width="1.51"/><path d="M1216,974L1415,661L1151,493Z" fill="#b6b0fc" stroke="#b6b0fc" stroke-width="1.51"/><path d="M1151,493L1415,661L1394,388Z" fill="#b8b4fa" stroke="#b8b4fa" stroke-width="1.51"/><path d="M493,668L682,812L903,595Z" fill="#bebdf7" stroke="#bebdf7" stroke-width="1.51"/><path d="M1216,974L1151,493L903,595Z" fill="#b9b4fa" stroke="#b9b4fa" stroke-width="1.51"/><path d="M749,233L493,668L903,595Z" fill="#c0c3f4" stroke="#c0c3f4" stroke-width="1.51"/><path d="M516,6L446,338L749,233Z" fill="#ced4f8" stroke="#ced4f8" stroke-width="1.51"/><path d="M446,338L493,668L749,233Z" fill="#c6caf5" stroke="#c6caf5" stroke-width="1.51"/><path d="M1308,128L1105,-393L872,97Z" fill="#cfd0fb" stroke="#cfd0fb" stroke-width="1.51"/><path d="M1751,219L1383,20L1308,128Z" fill="#c8c5fd" stroke="#c8c5fd" stroke-width="1.51"/><path d="M1751,219L1308,128L1394,388Z" fill="#c3c0fb" stroke="#c3c0fb" stroke-width="1.51"/><path d="M682,812L996,974L903,595Z" fill="#bab7f9" stroke="#bab7f9" stroke-width="1.51"/><path d="M900,-435L516,6L872,97Z" fill="#d3d9f6" stroke="#d3d9f6" stroke-width="1.51"/><path d="M872,97L516,6L749,233Z" fill="#cdd3f8" stroke="#cdd3f8" stroke-width="1.51"/><path d="M996,974L1216,974L903,595Z" fill="#b7b1fc" stroke="#b7b1fc" stroke-width="1.51"/><path d="M493,668L388,727L682,812Z" fill="#c2c1f9" stroke="#c2c1f9" stroke-width="1.51"/><path d="M682,812L846,1116L996,974Z" fill="#b9b4fa" stroke="#b9b4fa" stroke-width="1.51"/><path d="M186,429L388,727L493,668Z" fill="#c9cbf9" stroke="#c9cbf9" stroke-width="1.51"/><path d="M1216,974L1470,879L1415,661Z" fill="#b4abfe" stroke="#b4abfe" stroke-width="1.51"/><path d="M1415,661L1743,518L1394,388Z" fill="#bab6fa" stroke="#bab6fa" stroke-width="1.51"/><path d="M996,974L1201,1132L1216,974Z" fill="#b6aefd" stroke="#b6aefd" stroke-width="1.51"/><path d="M1216,974L1201,1132L1470,879Z" fill="#b3a9fe" stroke="#b3a9fe" stroke-width="1.51"/><path d="M547,1191L846,1116L682,812Z" fill="#bcb8f9" stroke="#bcb8f9" stroke-width="1.51"/><path d="M846,1116L1201,1132L996,974Z" fill="#b8b1fc" stroke="#b8b1fc" stroke-width="1.51"/><path d="M79,310L186,429L446,338Z" fill="#d1d8f9" stroke="#d1d8f9" stroke-width="1.51"/><path d="M446,338L186,429L493,668Z" fill="#c9cef7" stroke="#c9cef7" stroke-width="1.51"/><path d="M1470,879L1743,518L1415,661Z" fill="#b8b0fc" stroke="#b8b0fc" stroke-width="1.51"/><path d="M1383,20L1105,-393L1308,128Z" fill="#cecdfc" stroke="#cecdfc" stroke-width="1.51"/><path d="M1519,-434L1105,-393L1383,20Z" fill="#d1cff5" stroke="#d1cff5" stroke-width="1.51"/><path d="M1743,518L1751,219L1394,388Z" fill="#bfbbfa" stroke="#bfbbfa" stroke-width="1.51"/><path d="M-109,830L395,977L388,727Z" fill="#c9c8fd" stroke="#c9c8fd" stroke-width="1.51"/><path d="M388,727L395,977L682,812Z" fill="#c1bffb" stroke="#c1bffb" stroke-width="1.51"/><path d="M1105,-393L900,-435L872,97Z" fill="#d4d7f2" stroke="#d4d7f2" stroke-width="1.51"/><path d="M516,6L157,81L446,338Z" fill="#d6ddfb" stroke="#d6ddfb" stroke-width="1.51"/><path d="M200,-252L157,81L516,6Z" fill="#dee7fc" stroke="#dee7fc" stroke-width="1.51"/><path d="M157,81L79,310L446,338Z" fill="#d6ddfb" stroke="#d6ddfb" stroke-width="1.51"/><path d="M186,429L-32,609L388,727Z" fill="#cdd1fb" stroke="#cdd1fb" stroke-width="1.51"/><path d="M846,1116L1365,1340L1201,1132Z" fill="#b8affd" stroke="#b8affd" stroke-width="1.51"/><path d="M395,977L547,1191L682,812Z" fill="#c0bdfb" stroke="#c0bdfb" stroke-width="1.51"/><path d="M900,-435L499,-384L516,6Z" fill="#d9e0f0" stroke="#d9e0f0" stroke-width="1.51"/><path d="M1871,893L1816,-116L1751,219Z" fill="#c2befa" stroke="#c2befa" stroke-width="1.51"/><path d="M1751,219L1816,-116L1383,20Z" fill="#cccafe" stroke="#cccafe" stroke-width="1.51"/><path d="M1756,-245L1519,-434L1383,20Z" fill="#d2d0f7" stroke="#d2d0f7" stroke-width="1.51"/><path d="M1105,-393L1519,-434L900,-435Z" fill="#d6d5ee" stroke="#d6d5ee" stroke-width="1.51"/><path d="M157,81L-8,100L79,310Z" fill="#dde5fc" stroke="#dde5fc" stroke-width="1.51"/><path d="M499,-384L200,-252L516,6Z" fill="#dee7f4" stroke="#dee7f4" stroke-width="1.51"/><path d="M1816,-116L1756,-245L1383,20Z" fill="#d0cefa" stroke="#d0cefa" stroke-width="1.51"/><path d="M-90,-231L-8,100L157,81Z" fill="#e4edfc" stroke="#e4edfc" stroke-width="1.51"/><path d="M395,977L223,1300L547,1191Z" fill="#c6c3fc" stroke="#c6c3fc" stroke-width="1.51"/><path d="M79,310L-32,609L186,429Z" fill="#d2d8f8" stroke="#d2d8f8" stroke-width="1.51"/><path d="M-319,330L-32,609L79,310Z" fill="#d6dcf4" stroke="#d6dcf4" stroke-width="1.51"/><path d="M1470,879L1871,893L1743,518Z" fill="#b8affd" stroke="#b8affd" stroke-width="1.51"/><path d="M1201,1132L1365,1340L1470,879Z" fill="#b5aaff" stroke="#b5aaff" stroke-width="1.51"/><path d="M547,1191L1365,1340L846,1116Z" fill="#bbb4fb" stroke="#bbb4fb" stroke-width="1.51"/><path d="M1671,1338L1871,893L1470,879Z" fill="#b7abfe" stroke="#b7abfe" stroke-width="1.51"/><path d="M1743,518L1871,893L1751,219Z" fill="#bcb6fa" stroke="#bcb6fa" stroke-width="1.51"/><path d="M-32,609L-109,830L388,727Z" fill="#ced0fc" stroke="#ced0fc" stroke-width="1.51"/><path d="M-345,623L-109,830L-32,609Z" fill="#d2d5f4" stroke="#d2d5f4" stroke-width="1.51"/><path d="M-32,1105L223,1300L395,977Z" fill="#cbc9fe" stroke="#cbc9fe" stroke-width="1.51"/><path d="M547,1191L223,1300L1365,1340Z" fill="#bebaf8" stroke="#bebaf8" stroke-width="1.51"/><path d="M1365,1340L1671,1338L1470,879Z" fill="#b7abfe" stroke="#b7abfe" stroke-width="1.51"/><path d="M-109,830L-32,1105L395,977Z" fill="#cdcbfe" stroke="#cdcbfe" stroke-width="1.51"/><path d="M-8,100L-319,330L79,310Z" fill="#dbe4f6" stroke="#dbe4f6" stroke-width="1.51"/><path d="M200,-252L-90,-231L157,81Z" fill="#e5effa" stroke="#e5effa" stroke-width="1.51"/><path d="M499,-384L-90,-231L200,-252Z" fill="#e5eff3" stroke="#e5eff3" stroke-width="1.51"/><path d="M-308,20L-319,330L-8,100Z" fill="#e1eaf4" stroke="#e1eaf4" stroke-width="1.51"/><path d="M-109,830L-301,996L-32,1105Z" fill="#d0cef8" stroke="#d0cef8" stroke-width="1.51"/><path d="M-90,-231L-308,20L-8,100Z" fill="#e6f0f6" stroke="#e6f0f6" stroke-width="1.51"/><path d="M-308,20L-345,623L-319,330Z" fill="#dce4ee" stroke="#dce4ee" stroke-width="1.51"/><path d="M-319,330L-345,623L-32,609Z" fill="#d5dbf0" stroke="#d5dbf0" stroke-width="1.51"/><path d="M499,-384L-278,-234L-90,-231Z" fill="#e8f3f2" stroke="#e8f3f2" stroke-width="1.51"/><path d="M-90,-231L-278,-234L-308,20Z" fill="#e9f4f0" stroke="#e9f4f0" stroke-width="1.51"/><path d="M-345,623L-301,996L-109,830Z" fill="#d3d2f4" stroke="#d3d2f4" stroke-width="1.51"/><path d="M-32,1105L-310,1341L223,1300Z" fill="#d1cffa" stroke="#d1cffa" stroke-width="1.51"/><path d="M-345,623L-310,1341L-301,996Z" fill="#d3d1f3" stroke="#d3d1f3" stroke-width="1.51"/><path d="M-301,996L-310,1341L-32,1105Z" fill="#d3d1f6" stroke="#d3d1f6" stroke-width="1.51"/><path d="M223,1300L-310,1341L1365,1340Z" fill="#c7c3fb" stroke="#c7c3fb" stroke-width="1.51"/></svg>